<svg version="1.1" id="Layer_1" xmlns="http://www.w3.org/2000/svg" xmlns:xlink="http://www.w3.org/1999/xlink" x="0px" y="0px"
	 width="100%" viewBox="0 0 672 1024" enable-background="new 0 0 672 1024" xml:space="preserve">
<path fill="#000000" opacity="1.000000" stroke="none" 
	d="
M147.000244,601.307861 
	C119.439163,601.309204 92.378082,601.309204 65.317001,601.309204 
	C65.132767,600.761658 64.948524,600.214172 64.764290,599.666626 
	C96.665817,561.270325 128.567337,522.874084 161.088394,483.732117 
	C155.299698,483.066437 151.212250,484.789642 147.100555,485.688110 
	C135.453949,488.233032 123.576935,487.797302 111.832779,488.974213 
	C110.012611,489.156616 108.561874,488.468109 107.574112,486.921265 
	C102.375618,478.780273 97.177887,470.638702 92.025978,462.468262 
	C91.714485,461.974243 91.800545,461.229553 91.589684,459.890839 
	C133.723282,459.890839 175.532394,459.890839 218.891098,459.890839 
	C188.324509,498.536713 157.383682,535.341492 126.344231,572.539795 
	C134.636826,572.539795 142.232971,572.727112 149.816360,572.496094 
	C161.298325,572.146362 172.771301,571.502380 184.248444,570.991577 
	C186.104279,570.908936 187.984055,570.856689 189.167603,572.688660 
	C194.838699,581.466492 200.496307,590.253174 207.094330,600.488098 
	C186.445419,601.548950 166.961365,601.104004 147.000244,601.307861 
z"/>
<path fill="#000000" opacity="1.000000" stroke="none" 
	d="
M499.312317,488.816406 
	C500.648682,489.030304 501.329620,489.566864 501.367798,490.476013 
	C501.612183,496.295197 501.833801,502.115997 501.980865,507.938354 
	C502.088898,512.217834 498.986023,512.004211 496.078735,512.003174 
	C479.920258,511.997559 463.761780,512.008606 447.603333,511.984283 
	C440.267975,511.973236 440.172211,511.943634 440.275055,518.991943 
	C440.450653,531.030090 438.299194,529.762817 451.199615,529.756653 
	C464.026581,529.750549 476.855652,529.879578 489.679352,529.674316 
	C493.867310,529.607300 495.364136,531.127625 495.135986,535.209717 
	C494.903931,539.360840 494.947601,543.543396 495.153198,547.698181 
	C495.332214,551.315125 493.877716,552.929199 490.268433,552.896851 
	C477.789459,552.784973 465.307861,552.846680 452.831696,552.608643 
	C448.839447,552.532471 444.906830,552.482544 440.764496,553.225342 
	C439.843109,558.290588 440.235504,563.270508 440.429596,568.211975 
	C440.557251,571.462280 443.339478,570.858398 445.385925,570.858093 
	C462.044189,570.855713 478.702515,570.796692 495.360748,570.738525 
	C502.414246,570.713867 502.407043,570.696045 502.382660,577.953979 
	C502.369202,581.951843 502.114624,585.973511 502.462189,589.941223 
	C502.813812,593.955322 501.286713,595.188599 497.414215,595.177429 
	C471.427673,595.102112 445.440125,595.105774 419.454315,595.284973 
	C415.108917,595.314941 414.623901,593.192017 414.641968,589.714844 
	C414.741455,570.558105 414.720367,551.400635 414.723083,532.243469 
	C414.724884,519.583069 414.811523,506.920868 414.615265,494.263275 
	C414.553589,490.286987 415.635834,488.660065 419.925873,488.686279 
	C446.245117,488.846985 472.565826,488.770752 499.312317,488.816406 
z"/>
<path fill="#000000" opacity="1.000000" stroke="none" 
	d="
M320.720093,558.741821 
	C334.767883,543.464478 348.576324,528.450500 362.854858,512.925415 
	C357.519745,510.460480 352.856903,511.477509 348.356659,511.509857 
	C336.873016,511.592346 325.388855,511.824860 313.909576,512.158691 
	C310.030060,512.271545 308.473114,510.769287 308.670868,506.876312 
	C308.890198,502.557617 308.953339,498.206726 308.687500,493.894287 
	C308.406525,489.337097 310.884949,488.753845 314.569550,488.763336 
	C333.052368,488.810669 351.535858,488.768097 370.018433,488.648743 
	C378.172577,488.596069 386.328857,488.382080 394.476593,488.053314 
	C398.481750,487.891693 399.704834,489.357788 400.141541,493.484863 
	C401.206604,503.550415 397.673157,510.994171 390.658936,518.222168 
	C375.364288,533.983032 360.901917,550.551697 346.106476,566.796631 
	C344.996643,568.015076 343.750916,569.156128 343.322876,570.964478 
	C344.865784,572.411560 346.785309,571.703247 348.494019,571.708557 
	C363.812927,571.756470 379.134247,571.846069 394.449982,571.608826 
	C398.876862,571.540283 400.432220,573.091980 400.179535,577.391296 
	C399.935822,581.538818 399.938599,585.728882 400.231598,589.872070 
	C400.526093,594.035950 398.970093,595.343323 394.810303,595.310730 
	C370.667175,595.121521 346.522125,595.167847 322.377747,595.150879 
	C318.548431,595.148193 314.701050,595.011719 310.894623,595.328735 
	C306.860046,595.664551 305.503174,593.995422 305.772217,590.152893 
	C306.016022,586.670410 306.016693,583.161011 305.933289,579.668091 
	C305.847931,576.093506 307.208618,573.297058 309.663208,570.765015 
	C313.369141,566.942078 316.884430,562.934387 320.720093,558.741821 
z"/>
<path fill="#000000" opacity="1.000000" stroke="none" 
	d="
M242.235962,567.160461 
	C228.199280,589.527771 214.331741,611.573303 200.464218,633.618774 
	C199.981613,633.399597 199.499008,633.180420 199.016403,632.961243 
	C212.586899,593.216492 227.371719,553.890808 242.158951,513.320435 
	C229.052841,513.477112 217.391449,516.999084 203.921951,517.572327 
	C233.191757,480.074829 261.355560,443.671143 291.351990,408.744263 
	C291.882507,409.057404 292.413025,409.370514 292.943542,409.683655 
	C282.498322,434.004272 272.053101,458.324890 261.186340,483.626953 
	C273.354980,483.030548 283.867401,478.539520 296.129822,477.342346 
	C278.540283,508.330963 260.254547,537.455566 242.235962,567.160461 
z"/>
<path fill="#000000" opacity="1.000000" stroke="none" 
	d="
M544.292725,578.562744 
	C532.404114,548.715576 520.669312,519.221863 508.792175,489.370300 
	C511.698700,488.171600 514.516907,488.882477 517.236206,488.836151 
	C521.898376,488.756744 526.596313,489.171448 531.217407,488.730804 
	C535.985657,488.276123 537.823853,490.364349 539.365295,494.607971 
	C547.090637,515.876221 555.168701,537.016357 563.113525,558.205017 
	C563.515381,559.276855 563.674316,560.481995 565.219238,561.135254 
	C567.148315,559.727661 567.483032,557.311768 568.252258,555.239258 
	C575.837646,534.801208 583.436401,514.367188 590.813354,493.853638 
	C592.139893,490.165009 593.852234,488.540894 597.970947,488.736389 
	C605.389709,489.088409 612.837097,488.835876 621.270813,488.835876 
	C618.408875,496.039459 615.955811,502.329407 613.416931,508.584564 
	C602.464966,535.567688 591.380615,562.498047 580.635132,589.562988 
	C579.017273,593.637878 577.089294,595.364014 572.704834,595.134277 
	C566.892578,594.829773 561.046753,594.985291 555.222351,595.168213 
	C552.268433,595.260986 550.576782,594.099670 549.545593,591.397888 
	C547.943298,587.200134 546.155640,583.073242 544.292725,578.562744 
z"/>
<path fill="#000000" opacity="1.000000" stroke="none" 
	d="
M183.961517,547.981628 
	C181.086121,543.471375 178.400467,539.268250 175.730698,535.055176 
	C174.820587,533.618958 173.879349,532.038696 175.125305,530.450378 
	C180.735886,523.297852 186.432480,516.212830 192.277039,508.878845 
	C195.906555,511.979645 197.760315,515.531006 199.950653,518.764099 
	C206.850113,528.948242 213.572845,539.251953 220.423874,549.469177 
	C221.674728,551.334717 222.686111,553.032776 221.752457,555.428833 
	C218.131882,564.720154 214.632645,574.058838 211.036850,583.359985 
	C210.762085,584.070801 210.086563,584.626648 209.047089,585.960693 
	C200.564468,573.120422 192.360962,560.702637 183.961517,547.981628 
z"/>
</svg>