<?xml version="1.0" encoding="UTF-8"?>
<svg version="1.1" xmlns="http://www.w3.org/2000/svg" width="1024" height="1024">
<path d="M0 0 C166.32 0 332.64 0 504 0 C502.55095527 7.24522366 499.61321774 10.50942581 494 15 C492.64721885 16.98689731 491.31431695 18.98745218 490 21 C488.35697047 22.68997323 486.68528688 24.35216394 485 26 C479.49905993 31.89769403 474.32099133 38.01294127 469.25 44.28125 C466.35406463 47.78050524 463.30170044 51.12062616 460.2421875 54.4765625 C457.95484096 57.05082358 455.78451729 59.69289489 453.625 62.375 C450.43080658 66.32892345 447.09834491 70.1043374 443.625 73.8125 C439.7117257 77.99828644 436.10867261 82.32652101 432.625 86.875 C428.28039686 92.5398989 423.61111995 97.76975624 418.70458984 102.95166016 C414.6213158 107.27893026 410.83040832 111.77737356 407.109375 116.421875 C404.98014854 119.0242629 402.76550643 121.51575502 400.5 124 C396.56403814 128.31929032 392.86837899 132.79567551 389.19140625 137.3359375 C385.9081251 141.32737733 382.45401054 145.15670548 379 149 C376.65571872 151.65718323 374.32515434 154.32607251 372 157 C371.52046875 157.55042969 371.0409375 158.10085938 370.546875 158.66796875 C368.35949068 161.19788303 366.20564476 163.74273073 364.1171875 166.35546875 C358.98468577 172.76636114 353.56787637 178.78175383 347.87304688 184.69726562 C344.45993772 188.27930257 341.6643604 191.83467639 339 196 C337.35570171 197.68873879 335.68615782 199.35305515 334 201 C332.29068743 202.90637617 330.616951 204.84123913 328.94140625 206.77734375 C326.88659127 209.12983817 324.78989082 211.43996564 322.6875 213.75 C314.12234516 223.23620398 314.12234516 223.23620398 306.3359375 233.3515625 C305.89507812 233.89554688 305.45421875 234.43953125 305 235 C304.34 235 303.68 235 303 235 C302.73316406 235.58523438 302.46632813 236.17046875 302.19140625 236.7734375 C300.97468941 239.04730176 299.65950677 240.71165914 297.9375 242.625 C297.31617188 243.32109375 296.69484375 244.0171875 296.0546875 244.734375 C294.64535646 246.28839022 293.23377958 247.84037079 291.8203125 249.390625 C285.85762073 255.95164916 280.23200018 262.71265282 274.89453125 269.79296875 C273.95673828 270.88544922 273.95673828 270.88544922 273 272 C272.34 272 271.68 272 271 272 C270.68095703 272.78310547 270.68095703 272.78310547 270.35546875 273.58203125 C268.43778938 277.00290598 265.89895986 279.75449478 263.3125 282.6875 C259.24290493 287.35797488 255.29321955 292.05846433 251.59765625 297.03515625 C250 299 250 299 247.66796875 301.328125 C244.68378986 304.31667312 241.97210946 307.46249311 239.25 310.6875 C235.66214126 314.91035848 232.04669883 319.09235049 228.3125 323.1875 C224.4412755 327.45003961 220.80518679 331.87244683 217.18359375 336.34765625 C214.55053598 339.54595003 211.79484196 342.61719135 209.0234375 345.6953125 C206.82141107 348.2034121 204.72156418 350.77820297 202.625 353.375 C198.58737971 358.36223482 194.33549912 363.08820543 189.96875 367.78515625 C187.97328212 369.83679121 187.97328212 369.83679121 187 372 C186.34 372 185.68 372 185 372 C184.773125 372.53109375 184.54625 373.0621875 184.3125 373.609375 C182.56630711 376.78994062 180.31938714 379.47998907 178 382.25 C177.54882812 382.80429687 177.09765625 383.35859375 176.6328125 383.9296875 C175.46926971 385.32731582 174.23905262 386.66885563 173 388 C172.34 388 171.68 388 171 388 C170.7525 388.55171875 170.505 389.1034375 170.25 389.671875 C168.75765526 392.45136707 166.96327477 394.7814707 165 397.25 C164.29875 398.14203125 163.5975 399.0340625 162.875 399.953125 C162.25625 400.62859375 161.6375 401.3040625 161 402 C160.34 402 159.68 402 159 402 C158.67515625 402.78697266 158.67515625 402.78697266 158.34375 403.58984375 C156.47880756 406.93481318 154.00774357 409.69214868 151.5 412.5625 C150.96608643 413.17947754 150.43217285 413.79645508 149.88208008 414.43212891 C145.01188865 420.03794854 140.0137525 425.52249727 135 431 C129.50723205 437.00240622 124.70014226 443.35876002 120 450 C121.14855469 449.66226562 122.29710937 449.32453125 123.48046875 448.9765625 C125.04935916 448.52562394 126.61837663 448.07512725 128.1875 447.625 C128.93708984 447.40328125 129.68667969 447.1815625 130.45898438 446.953125 C143.47455811 443.24994921 156.81974858 442.43424824 170.25 441.5 C172.93782944 441.30763526 175.62553407 441.11358983 178.31323242 440.91940308 C180.08548692 440.79145686 181.85778488 440.66411132 183.63012695 440.53738403 C189.47495931 440.11780797 195.31520261 439.65932138 201.15332031 439.15380859 C209.77725609 438.43535698 218.39005714 437.82887726 227.03735352 437.47875977 C228.58017297 437.41572206 228.58017297 437.41572206 230.1541605 437.35141087 C242.39997215 436.87520578 254.64950684 436.66650482 266.90234375 436.46484375 C269.40564842 436.42164562 271.90894934 436.37822973 274.4122467 436.33460999 C279.61147208 436.24462038 284.81072504 436.15656012 290.01000977 436.07006836 C296.62834235 435.95990915 303.24660071 435.84585959 309.86484432 435.73049068 C315.01676956 435.64093887 320.16872025 435.55293089 325.32068062 435.46542549 C327.76000117 435.42391198 330.19931591 435.382055 332.63862419 435.33982658 C338.15661923 435.24484449 343.67446597 435.15618466 349.19284058 435.08639526 C352.89159622 435.03908341 356.58594922 434.95575182 360.2829895 434.83474731 C361.83391904 434.7979345 363.38485259 434.76128991 364.93579102 434.72485352 C366.24443619 434.68207779 367.55308136 434.63930206 368.90138245 434.5952301 C372 435 372 435 373.94151306 436.89219666 C375 439 375 439 375 441 C375.66 441 376.32 441 377 441 C378.65279443 443.40818494 380.18487642 445.81260196 381.6875 448.3125 C382.59339022 449.79188703 383.49964141 451.27105309 384.40625 452.75 C384.8496875 453.47832031 385.293125 454.20664062 385.75 454.95703125 C387.36453066 457.5957798 389.02082681 460.20642919 390.6875 462.8125 C392.36415441 465.43716928 394.03943148 468.06240303 395.703125 470.6953125 C398.70426571 475.4403593 401.75060039 480.14755484 404.875 484.8125 C409.34233566 491.48326041 413.67992585 498.23340382 418 505 C418.64324219 506.00675781 419.28648437 507.01351563 419.94921875 508.05078125 C422.5175201 512.07872459 425.06989793 516.11229344 427.5625 520.1875 C429.67492552 523.58394888 432.02678398 526.74203814 434.44921875 529.921875 C438.2649872 535.03519696 441.76964067 539.9927586 444 546 C442.13870441 547.86129559 439.47408618 547.13014509 436.99636963 547.14176419 C436.12302403 547.14074153 435.24967844 547.13971886 434.34986782 547.1386652 C433.42686194 547.14150742 432.50385607 547.14434964 431.55288032 547.14727798 C428.41906948 547.15568734 425.2852953 547.15689804 422.151474 547.15821838 C419.89846904 547.1627795 417.64546493 547.16777884 415.39246184 547.17318195 C409.16946375 547.18682384 402.94647115 547.19419882 396.72346199 547.20060861 C390.71164259 547.20776805 384.69983364 547.21959466 378.68802188 547.23132664 C366.3844516 547.25517428 354.08087813 547.2743628 341.77729607 547.29092598 C329.58944193 547.30734848 317.40159377 547.3258234 305.21374702 547.34705925 C304.07843212 547.34903566 304.07843212 547.34903566 302.92018156 547.351052 C299.07662595 547.35775378 295.2330704 547.36449242 291.38951487 547.37124526 C264.1424135 547.41904998 236.89530654 547.462223 209.64819336 547.50268555 C183.1726033 547.54201293 156.69701785 547.58342997 130.22143555 547.62768555 C129.40581255 547.62904808 128.59018954 547.63041061 127.74985069 547.63181442 C119.55927389 547.64549941 111.36869716 547.65922699 103.17812048 547.67298577 C86.49192143 547.70101478 69.80572191 547.7287595 53.11952209 547.7563324 C52.35226243 547.7576006 51.58500277 547.7588688 50.79449282 547.76017542 C-0.47033063 547.84487815 -51.73516457 547.92293231 -103 548 C-103.66 546.68 -104.32 545.36 -105 544 C-104.57589844 543.52691406 -104.15179688 543.05382812 -103.71484375 542.56640625 C-100.4680641 538.9057514 -97.34470739 535.20249034 -94.375 531.3125 C-91.78575335 527.94072547 -89.04756064 524.97137163 -86 522 C-80.40852195 515.88608587 -75.22252401 509.42772186 -70 503 C-68.41749764 501.06182122 -66.83418147 499.12430659 -65.25 497.1875 C-64.5075 496.27871094 -63.765 495.36992188 -63 494.43359375 C-61.43162995 492.52520597 -59.84838848 490.63310143 -58.25 488.75 C-56.14862722 486.1816555 -54.25426005 483.56080872 -52.40625 480.80859375 C-50.47753769 478.32805541 -48.22101383 476.22101383 -46 474 C-44.49725269 472.22806491 -43.01800119 470.43594444 -41.5625 468.625 C-39.07528692 465.55183721 -36.59017125 462.48699415 -34 459.5 C-31.4615661 456.56779242 -29.0098466 453.57112676 -26.5625 450.5625 C-23.906881 447.30292752 -21.22675504 444.08337212 -18.4375 440.9375 C-15.86187232 438.02876574 -13.41407633 435.0442383 -11 432 C-8.58592367 428.9557617 -6.13812768 425.97123426 -3.5625 423.0625 C2.88606597 415.77855162 8.90723829 408.13013498 14.97265625 400.52734375 C17.85751317 396.93099996 20.77898187 393.3652109 23.703125 389.80078125 C25.25807658 387.90469233 26.81007717 386.00618016 28.359375 384.10546875 C31.99030961 379.6520909 35.63796262 375.22390941 39.40234375 370.8828125 C42.25142912 367.52521067 44.99540236 364.08058672 47.75390625 360.6484375 C50.04305994 357.94922671 52.49660628 355.49930988 55 353 C55.94868578 351.81663932 56.86895663 350.60954842 57.75 349.375 C60.93010288 345.03403694 64.33400572 340.90006883 67.7578125 336.75 C70.37316332 333.54232234 72.8966736 330.27229537 75.39453125 326.97265625 C77.13700104 324.83166539 79.04878327 322.95121673 81 321 C82.25105791 319.49712315 83.47926898 317.9750183 84.6875 316.4375 C88.3847145 311.76587944 92.14080508 307.14689741 95.921875 302.54296875 C97.36182894 300.78091985 98.76606135 298.98930227 100.140625 297.17578125 C101.06101562 296.09876953 101.06101562 296.09876953 102 295 C102.66 295 103.32 295 104 295 C104.20625 294.319375 104.4125 293.63875 104.625 292.9375 C106.11500881 289.75429936 107.86121387 287.66267645 110.1796875 285.05859375 C114.9438733 279.6707699 119.43025312 274.02945707 123.84765625 268.35546875 C124.57142456 267.4264978 124.57142456 267.4264978 125.30981445 266.47875977 C126.24521079 265.27474817 127.17752453 264.06833305 128.10620117 262.85913086 C130.85898039 259.31254594 133.80356772 256.16381562 137 253 C137.66 252.01 138.32 251.02 139 250 C141.06223622 246.90664567 143.34457681 244.58903761 146 242 C146.721875 241.071875 147.44375 240.14375 148.1875 239.1875 C148.785625 238.465625 149.38375 237.74375 150 237 C150.66 237 151.32 237 152 237 C152.2475 236.278125 152.495 235.55625 152.75 234.8125 C154.12269592 231.72393418 155.72353296 229.48988582 158 227 C158.66 227 159.32 227 160 227 C160.25136719 226.2678125 160.50273437 225.535625 160.76171875 224.78125 C162.09326159 221.79052916 163.60187201 219.90083499 165.8125 217.5 C166.87984375 216.33210938 166.87984375 216.33210938 167.96875 215.140625 C169.54808675 213.47624704 171.17195953 211.85408401 172.8125 210.25 C175.04020599 208.13951011 175.04020599 208.13951011 176.31640625 205.7421875 C178.297274 202.51580893 180.65162539 199.72459898 183.125 196.875 C187.61351525 191.65630285 191.95878412 186.35423568 196.22265625 180.94921875 C196.80917969 180.30597656 197.39570313 179.66273438 198 179 C198.66 179 199.32 179 200 179 C200.0928125 178.42378906 200.185625 177.84757813 200.28125 177.25390625 C201.17356714 174.45571608 202.48911861 173.07206656 204.5 170.9375 C207.62138166 167.54299744 210.60186122 164.08745304 213.5 160.5 C217.52874712 155.53514124 221.73076366 150.75766592 226 146 C229.11306833 142.49045599 232.06534693 138.97587263 234.75 135.125 C237 132 237 132 239 131 C239.94327814 129.30543839 240.88570077 127.61039056 241.82226562 125.91210938 C243.73234905 122.8109955 246.21261681 120.34221938 248.75 117.75 C254.44483663 111.76889418 260.27829597 105.44340806 264 98 C263.40687012 98.11069824 262.81374023 98.22139648 262.20263672 98.33544922 C241.30958244 102.22130661 241.30958244 102.22130661 231.44787598 103.53004456 C229.21860747 103.83390029 226.99149135 104.15419831 224.76745605 104.49424744 C216.76786466 105.711594 208.86099696 106.44129326 200.78125 106.81640625 C199.57333801 106.87756622 198.36542603 106.9387262 197.12091064 107.0017395 C193.24758349 107.19573234 189.3738778 107.37985859 185.5 107.5625 C184.15465255 107.62735554 182.80931568 107.69243065 181.46398926 107.75772095 C172.64328677 108.18563672 163.82190319 108.59758466 155 109 C153.64626279 109.06287035 152.29252852 109.12580428 150.938797 109.188797 C149.58623387 109.25113847 148.23366941 109.31345101 146.88110352 109.37573242 C145.67148453 109.43178146 144.46186554 109.48783051 143.21559143 109.545578 C138.66686586 109.73185623 134.11957781 109.82479018 129.56787109 109.90185547 C125.89496056 109.97102336 122.22470196 110.08819608 118.55322266 110.21142578 C112.32557115 110.41661687 106.09854424 110.55812333 99.86853027 110.66860962 C97.34908542 110.7224869 94.82996777 110.79527682 92.31164551 110.88778687 C72.10601296 111.60639231 72.10601296 111.60639231 66.94458008 107.66943359 C65.11286386 104.79999347 64.0707752 102.21672529 63 99 C61.90865355 97.33791638 60.76083131 95.71168242 59.5625 94.125 C56.99795326 90.50650567 54.63466618 86.81861752 52.33984375 83.0234375 C48.08698231 76.04954387 43.56792159 69.27010373 39 62.5 C33.76807331 54.74577617 28.66330196 46.94674031 23.79980469 38.95507812 C19.80238072 32.39175478 15.83792597 25.97801098 11 20 C8 15.39285714 8 15.39285714 8 13 C7.34 13 6.68 13 6 13 C4.4921875 10.91796875 4.4921875 10.91796875 2.875 8.1875 C2.33617187 7.29417969 1.79734375 6.40085938 1.2421875 5.48046875 C0 3 0 3 0 0 Z " fill="#020202" transform="translate(177,215)"/>
<path d="M0 0 C1.2065625 0.0309375 1.2065625 0.0309375 2.4375 0.0625 C1.79842964 2.98203818 0.86297626 5.47242477 -0.453125 8.15234375 C-1.01930542 9.31950928 -1.01930542 9.31950928 -1.59692383 10.51025391 C-1.99806396 11.33187012 -2.3992041 12.15348633 -2.8125 13 C-5.98411782 19.58359507 -8.90904752 26.1322598 -11.39453125 33.0078125 C-12.95910624 37.09977787 -14.75901954 41.07118416 -16.5625 45.0625 C-17.29044777 46.68485851 -18.01831127 48.30725484 -18.74609375 49.9296875 C-19.49728755 51.59900706 -20.24859207 53.26827681 -21 54.9375 C-21.39614502 55.81954102 -21.79229004 56.70158203 -22.20043945 57.61035156 C-24.18573837 62.02647084 -26.1973161 66.42722077 -28.25 70.8125 C-30.52719557 75.78801634 -32.38309896 80.89402467 -34.2668457 86.02709961 C-36.23702111 91.33661904 -38.52073733 96.43934826 -40.9453125 101.55859375 C-42.8321718 105.64678889 -44.57952133 109.78229464 -46.3125 113.9375 C-49.39366644 121.32057312 -52.54916108 128.66801152 -55.75 136 C-59.46524415 144.50607622 -59.46524415 144.50607622 -63.0625 153.0625 C-65.5060566 158.99184701 -68.06720402 164.86928699 -70.625 170.75 C-71.04910156 171.72517578 -71.47320313 172.70035156 -71.91015625 173.70507812 C-73.83042812 178.11270216 -75.76013346 182.51552033 -77.71875 186.90625 C-79.19114571 190.21130454 -80.61747469 193.53110661 -82 196.875 C-82.63228516 198.39673828 -82.63228516 198.39673828 -83.27734375 199.94921875 C-84.12892679 202.0121722 -84.97535055 204.07726351 -85.81640625 206.14453125 C-87.7402238 210.84250576 -89.70951102 215.43740858 -92.0625 219.9375 C-94.09285818 223.8840087 -95.61299801 227.86800363 -97.0625 232.0625 C-98.80157584 237.09437148 -100.74644362 241.79438061 -103.25390625 246.48828125 C-106.66183469 253.19223599 -109.479251 260.18873869 -112.375 267.125 C-115.00373928 273.39172116 -117.65756989 279.64617631 -120.375 285.875 C-120.65255127 286.51381104 -120.93010254 287.15262207 -121.21606445 287.81079102 C-122.47018829 290.67305906 -123.77560893 293.47905421 -125.19921875 296.26171875 C-126.34210544 298.60971232 -126.99094301 300.54785108 -127.5625 303.0625 C-126.29664063 302.77117187 -125.03078125 302.47984375 -123.7265625 302.1796875 C-109.83257048 299.04534387 -95.88618756 296.45918289 -81.84033203 294.11865234 C-80.42089479 293.8773001 -79.00146104 293.63592734 -77.58203125 293.39453125 C-76.32495361 293.18546143 -75.06787598 292.9763916 -73.77270508 292.76098633 C-70.68990728 292.23152792 -70.68990728 292.23152792 -68.58544922 291.06030273 C-65.59335758 289.58447863 -62.44306215 289.24980664 -59.17578125 288.765625 C-57.67580947 288.52979751 -56.17589303 288.29361785 -54.67602539 288.05712891 C-53.89180206 287.93573547 -53.10757874 287.81434204 -52.29959106 287.68927002 C-39.06116672 285.6320813 -26.04167883 283.26737176 -13.06567383 279.89160156 C-12.13779053 279.65151367 -11.20990723 279.41142578 -10.25390625 279.1640625 C-9.46185791 278.95088379 -8.66980957 278.73770508 -7.85375977 278.51806641 C-5.37192798 278.02460896 -3.08652183 277.98375521 -0.5625 278.0625 C-0.17723269 282.40831523 -1.08432364 284.36413651 -3.6875 287.8125 C-4.33203125 288.69035156 -4.9765625 289.56820313 -5.640625 290.47265625 C-6.27484375 291.32730469 -6.9090625 292.18195313 -7.5625 293.0625 C-11.72137803 299.00531782 -15.46236642 305.17548196 -19.17089844 311.40405273 C-22.52464229 317.0291189 -26.01609751 322.55689614 -29.5625 328.0625 C-35.29592414 337.01031524 -40.8815311 346.04330557 -46.42578125 355.109375 C-49.8388174 360.67764101 -53.28912022 366.21744977 -56.79125977 371.72998047 C-62.1252368 380.12771995 -67.31607906 388.59707061 -72.41308594 397.140625 C-75.42678641 402.18663634 -78.49216237 407.18774474 -81.67578125 412.12890625 C-84.22444097 416.09172913 -86.73614364 420.07753666 -89.25 424.0625 C-90.28642458 425.70444839 -91.32288341 427.34637516 -92.359375 428.98828125 C-92.88466797 429.82053223 -93.40996094 430.6527832 -93.95117188 431.51025391 C-95.57613369 434.08409494 -97.20198589 436.65737138 -98.828125 439.23046875 C-99.62536987 440.49213867 -99.62536987 440.49213867 -100.4387207 441.77929688 C-101.44753783 443.37573617 -102.45648082 444.97209593 -103.46557617 446.56835938 C-108.84710168 455.08607006 -114.15477203 463.64248328 -119.36914062 472.26367188 C-121.684533 476.07011125 -124.05072217 479.8221933 -126.54296875 483.515625 C-129.69134218 488.19728728 -132.57042408 493.01763123 -135.4375 497.875 C-139.36035356 504.47103959 -143.38666417 510.92904912 -147.69921875 517.27734375 C-152.44838887 524.37620811 -156.80641432 531.72269226 -161.0625 539.125 C-164.05871577 544.30524548 -167.32091813 549.25875297 -170.671875 554.21484375 C-172.31640002 556.69182461 -173.86687138 559.18878157 -175.375 561.75 C-178.10436678 566.37579329 -181.00748296 570.87502972 -183.9375 575.375 C-187.95860131 581.55280601 -191.88166698 587.77472444 -195.72265625 594.06640625 C-198.04609025 597.85000259 -200.42900044 601.59358878 -202.82421875 605.33203125 C-205.86883864 610.11447913 -208.8599313 614.93037606 -211.8515625 619.74609375 C-216.27191488 626.85439658 -220.7475555 633.92105461 -225.3125 640.9375 C-228.67607627 646.11058415 -231.97125924 651.30545975 -235.11328125 656.6171875 C-239.4184444 663.88142506 -243.848461 671.056144 -248.5625 678.0625 C-252.74913879 684.28521899 -256.66203908 690.6578521 -260.5625 697.0625 C-261.93662227 699.29220783 -263.31161468 701.52137966 -264.6875 703.75 C-267.07677396 707.62614112 -269.43180732 711.5185093 -271.75 715.4375 C-273.81504324 718.90162403 -276.03000552 722.17226866 -278.4140625 725.421875 C-279.94306904 727.60617005 -281.23639284 729.91353309 -282.53125 732.2421875 C-284.93828019 736.49096049 -287.57633957 740.60527187 -290.3125 744.6484375 C-293.98225899 750.13328131 -297.35107653 755.8172565 -300.78515625 761.45117188 C-303.50829211 765.8833756 -306.27906024 770.02077707 -309.5625 774.0625 C-310.40329883 775.62029905 -311.19667433 777.20475068 -311.9375 778.8125 C-313.91327723 782.88307719 -316.13165903 786.53070999 -318.6953125 790.25 C-321.26425698 794.11953981 -323.65559952 798.0907516 -326.0625 802.0625 C-329.32120743 807.43419903 -332.6251589 812.73819937 -336.171875 817.92578125 C-337.91200818 820.59952521 -339.47983294 823.35533264 -341.0625 826.125 C-343.0947519 829.66577368 -345.16143411 832.98133945 -347.6875 836.1875 C-350.47793934 839.75306138 -352.34706273 843.50573228 -354.296875 847.578125 C-355.89747308 850.72003975 -357.8218736 853.5382104 -359.8203125 856.4375 C-362.46550647 860.42308373 -364.88247752 864.54134833 -367.31542969 868.65893555 C-369.61859407 872.54309432 -372.04677874 876.31051229 -374.5625 880.0625 C-375.0575 880.97 -375.5525 881.8775 -376.0625 882.8125 C-377.69085383 885.25503075 -378.85395774 886.0351219 -381.5625 887.0625 C-383.125 885.8125 -383.125 885.8125 -384.5625 884.0625 C-384.46829338 881.2363013 -383.55361663 880.05177869 -381.75 877.875 C-379.89074933 875.48453485 -378.87071152 873.73575517 -377.69921875 871.01171875 C-377.17920288 869.81228638 -377.17920288 869.81228638 -376.64868164 868.58862305 C-376.2902417 867.75500244 -375.93180176 866.92138184 -375.5625 866.0625 C-374.846788 864.43730888 -374.13063812 862.81231052 -373.4140625 861.1875 C-369.45955802 852.11700361 -365.71883711 843.05204085 -362.52441406 833.68481445 C-361.06112537 829.40588176 -359.40432445 825.31948373 -357.4921875 821.2265625 C-355.92641324 817.58186107 -354.78068817 813.79824209 -353.55859375 810.02734375 C-352.38797249 806.54302399 -351.02569 803.16556221 -349.6328125 799.765625 C-347.90606522 795.40464281 -346.36654 790.97823324 -344.80859375 786.5546875 C-343.68621452 783.4092109 -342.52785062 780.2812782 -341.3503418 777.15625 C-339.9687792 773.48464144 -338.60870109 769.80511922 -337.25 766.125 C-336.94731201 765.30523682 -336.64462402 764.48547363 -336.33276367 763.64086914 C-334.0570528 757.45595438 -331.84248945 751.25136469 -329.69213867 745.02172852 C-328.44780816 741.44772222 -327.11724363 737.92771141 -325.69140625 734.421875 C-323.15600667 728.14417054 -320.93510576 721.76011616 -318.6875 715.375 C-315.96221295 707.67447379 -313.23429872 699.9924171 -310.125 692.4375 C-308.24436991 687.85674738 -306.67495911 683.32340198 -305.328125 678.5625 C-303.71330675 673.2896241 -301.56938885 668.1956129 -299.5625 663.0625 C-296.56548043 655.28104557 -293.66486134 647.48635665 -291.0625 639.5625 C-288.70213456 632.37616445 -286.07161588 625.31703121 -283.38916016 618.24707031 C-277.9146006 603.95861871 -277.9146006 603.95861871 -273.27880859 589.38647461 C-272.59063942 587.15379485 -271.77893084 585.04731867 -270.8828125 582.890625 C-268.06001192 575.91351414 -265.53106845 568.83142761 -262.98120117 561.7512207 C-262.13268723 559.39633443 -261.28040285 557.0428378 -260.42773438 554.68945312 C-257.37823543 546.25011507 -254.44422844 537.78434484 -251.63256836 529.26293945 C-250.36404725 525.46895287 -248.9933368 521.7356222 -247.5625 518 C-247.05512903 516.66438909 -246.54863605 515.32844436 -246.04296875 513.9921875 C-245.67244385 513.01330566 -245.67244385 513.01330566 -245.29443359 512.01464844 C-241.84385927 502.81158231 -238.63459841 493.52257151 -235.6328125 484.1640625 C-234.15742061 479.62351535 -232.68390946 475.1532409 -230.6875 470.8125 C-225.67584045 459.91165296 -221.93128682 448.39129352 -218.01049805 437.06518555 C-216.67768803 433.21878707 -215.31634994 429.39358156 -213.85546875 425.59375 C-212.4478909 422.37624202 -212.4478909 422.37624202 -212.5625 420.0625 C-226.13668081 420.58806908 -239.64846877 421.7080157 -253.17675781 422.90112305 C-263.75196858 423.83247311 -274.32898817 424.68207131 -284.92016602 425.41577148 C-285.90686279 425.48739502 -286.89355957 425.55901855 -287.91015625 425.6328125 C-288.76617432 425.69227051 -289.62219238 425.75172852 -290.50415039 425.81298828 C-292.62338292 425.95280407 -292.62338292 425.95280407 -294.5625 427.0625 C-297.35792387 427.39465552 -300.14239047 427.67872042 -302.9453125 427.9296875 C-304.68881896 428.09487402 -306.43230795 428.26024507 -308.17578125 428.42578125 C-310.9087731 428.68067923 -313.64193219 428.93335296 -316.37548828 429.18212891 C-327.91806356 430.23954493 -339.21516965 431.6768565 -350.5625 434.0625 C-351.15527344 432.2109375 -351.15527344 432.2109375 -351.5625 430.0625 C-350.078125 427.6875 -350.078125 427.6875 -347.8125 425.0625 C-346.97976563 424.08925781 -346.14703125 423.11601562 -345.2890625 422.11328125 C-342.1812278 418.60548369 -338.98621549 415.17847435 -335.78979492 411.75146484 C-331.86146707 407.49481335 -328.30003143 403.00828659 -324.76489258 398.42358398 C-321.4240399 394.1081923 -317.94733867 389.93784795 -314.375 385.8125 C-306.12662018 376.67113092 -306.12662018 376.67113092 -299.16015625 366.59765625 C-297.29482569 363.63775518 -295.06513055 361.5008636 -292.5625 359.0625 C-291.08080462 357.31116748 -289.62246543 355.5398215 -288.1875 353.75 C-285.4409329 350.34992359 -282.66345725 347.00805972 -279.75 343.75 C-277.03730626 340.69353171 -274.81288722 337.47688061 -272.5625 334.0625 C-271.22916667 332.72916667 -269.89583333 331.39583333 -268.5625 330.0625 C-267.2695377 328.30688026 -266.03168309 326.51807071 -264.7890625 324.7265625 C-263.2428912 322.62889061 -261.40269924 320.90269924 -259.5625 319.0625 C-259.088125 318.258125 -258.61375 317.45375 -258.125 316.625 C-256.28674147 313.61025601 -254.06419127 311.56419127 -251.5625 309.0625 C-246.58614106 303.38662029 -246.58614106 303.38662029 -242.5625 297.0625 C-241.9025 297.0625 -241.2425 297.0625 -240.5625 297.0625 C-240.5625 296.4025 -240.5625 295.7425 -240.5625 295.0625 C-239.2554461 293.70339528 -237.91697467 292.37435134 -236.5625 291.0625 C-235.29031682 289.53908736 -234.04118688 287.99620608 -232.8125 286.4375 C-230.67737394 283.73566758 -228.54163462 281.0367995 -226.37109375 278.36328125 C-225.67113281 277.50089844 -224.97117187 276.63851563 -224.25 275.75 C-223.61449219 274.97011719 -222.97898437 274.19023437 -222.32421875 273.38671875 C-220.48040425 271.05602139 -220.48040425 271.05602139 -218.95703125 268.26953125 C-218.49683594 267.54121094 -218.03664063 266.81289063 -217.5625 266.0625 C-216.9025 266.0625 -216.2425 266.0625 -215.5625 266.0625 C-215.5625 265.4025 -215.5625 264.7425 -215.5625 264.0625 C-214.9025 264.0625 -214.2425 264.0625 -213.5625 264.0625 C-213.376875 263.4025 -213.19125 262.7425 -213 262.0625 C-211.31601834 258.54810349 -209.15309341 256.16467141 -206.55078125 253.29296875 C-203.04525536 249.36044364 -199.83195351 245.19135272 -196.5625 241.0625 C-195.14677697 239.29091217 -193.73012869 237.52006328 -192.3125 235.75 C-191.68859375 234.97011719 -191.0646875 234.19023437 -190.421875 233.38671875 C-189.50148438 232.23623047 -189.50148438 232.23623047 -188.5625 231.0625 C-187.86640625 230.14082031 -187.1703125 229.21914062 -186.453125 228.26953125 C-185.82921875 227.54121094 -185.2053125 226.81289062 -184.5625 226.0625 C-183.9025 226.0625 -183.2425 226.0625 -182.5625 226.0625 C-182.34335937 225.38316406 -182.12421875 224.70382813 -181.8984375 224.00390625 C-180.17039691 220.19918529 -177.79835761 217.23952464 -175.1875 214 C-174.70539063 213.38833984 -174.22328125 212.77667969 -173.7265625 212.14648438 C-171.16182479 208.92313875 -168.52571144 205.93213634 -165.5625 203.0625 C-161.24986452 198.36785951 -157.25514815 193.45811585 -153.37109375 188.40625 C-145.67683334 178.43528619 -137.63169657 168.73054666 -129.5625 159.0625 C-123.81709519 152.17860483 -118.1352181 145.24462479 -112.49609375 138.2734375 C-107.37028761 131.94133435 -102.23025538 125.63112963 -96.9375 119.4375 C-92.77125046 114.55611433 -88.76994985 109.56684851 -84.82763672 104.50341797 C-81.29695959 99.97502212 -77.69438684 95.51002471 -74.0625 91.0625 C-69.94571335 86.02008842 -65.87861287 80.94522727 -61.875 75.8125 C-57.64975909 70.39845732 -53.3019887 65.1085509 -48.88671875 59.84765625 C-46.12742792 56.54114472 -43.43287341 53.18811644 -40.75390625 49.81640625 C-39.08109203 47.71420656 -37.40115127 45.61867663 -35.71484375 43.52734375 C-29.50456474 35.81604903 -23.45456187 28.02091623 -17.5625 20.0625 C-16.54261629 18.70761799 -15.52188116 17.35337613 -14.5 16 C-11.34611213 11.80072234 -8.2737837 7.54269666 -5.19921875 3.28515625 C-2.83094173 0.06904736 -2.83094173 0.06904736 0 0 Z " fill="#040404" transform="translate(974.5625,5.9375)"/>
<path d="M0 0 C3.54561864 1.51955085 4.00765349 3.36004129 5.51171875 6.7890625 C7.13312319 10.19116725 9.28854792 13.16677353 11.453125 16.2421875 C12.625 18.125 12.625 18.125 12.625 20.125 C13.285 20.125 13.945 20.125 14.625 20.125 C16.17238434 22.38751018 17.59729591 24.64923506 19 27 C22.72831281 33.11091949 26.56700323 39.12275728 30.5625 45.0625 C37.69684061 55.69228881 44.66326573 66.42640126 51.5 77.25 C53.38532734 80.22683265 55.31196407 83.14348872 57.375 86 C59.625 89.125 59.625 89.125 60.875 91.21875 C63.43285141 95.46661038 66.16378326 99.59885843 68.875 103.75 C72.44874096 109.23039338 76.01523108 114.71255898 79.5 120.25 C81.65293255 123.66058622 83.90764161 126.96669422 86.25 130.25 C88.41237995 133.29655309 90.35816886 136.33384396 92.125 139.625 C93.84544643 142.8209102 95.71510259 145.78724283 97.8125 148.75 C98.39386719 149.57371094 98.97523438 150.39742187 99.57421875 151.24609375 C100.6869944 152.80821881 101.80246911 154.36849796 102.93212891 155.91845703 C104.34853287 157.87039705 105.73756414 159.83989538 107.125 161.8125 C107.81178833 162.73893311 107.81178833 162.73893311 108.51245117 163.68408203 C110.71111873 166.85114482 111.62287643 168.52049155 111.63671875 172.4609375 C110.34913831 177.12406666 108.72239876 181.5692239 106.9375 186.0625 C106.20532472 187.94255087 105.47355734 189.82276065 104.7421875 191.703125 C104.20029785 193.08661133 104.20029785 193.08661133 103.64746094 194.49804688 C102.24955698 198.08960528 100.90334468 201.69934906 99.5625 205.3125 C97.46489756 210.93584455 95.30839314 216.5344427 93.125 222.125 C88.7239642 233.40582979 84.38106946 244.68136199 80.62109375 256.1953125 C79.15674305 260.50222632 77.49985264 264.72865437 75.84375 268.96484375 C74.72026467 271.8779836 73.66364034 274.80578968 72.625 277.75 C70.60991373 283.35755564 68.16687261 288.73914696 65.625 294.125 C63.828125 293.92578125 63.828125 293.92578125 61.625 293.125 C59.984375 291.04296875 59.984375 291.04296875 58.375 288.3125 C55.23285769 283.11613993 51.92764412 278.07227972 48.51953125 273.046875 C46.79523795 270.38755255 45.22368675 267.6749971 43.66772461 264.91503906 C41.90990137 261.89739449 39.95514684 259.01719909 38 256.125 C37.1197235 254.81384784 36.23951731 253.50264848 35.359375 252.19140625 C34.91013672 251.52383301 34.46089844 250.85625977 33.99804688 250.16845703 C31.73894053 246.80630907 29.49512897 243.43399018 27.25 240.0625 C26.45059436 238.86323223 25.65111845 237.66401131 24.8515625 236.46484375 C24.47773437 235.9037793 24.10390625 235.34271484 23.71875 234.76464844 C22.66097102 233.17892442 21.60007093 231.59528376 20.5390625 230.01171875 C18.78196801 227.36173338 17.06971558 224.69015532 15.375 222 C12.96191762 218.19710434 10.50804449 214.42840181 8 210.6875 C3.66510673 204.21915926 -0.57229772 197.68871959 -4.80712891 191.15454102 C-7.04284804 187.7063144 -9.28287357 184.26318965 -11.5625 180.84375 C-13.29009082 178.25236378 -14.96499544 175.63505578 -16.625 173 C-19.11786916 169.06975309 -21.65882621 165.17861388 -24.25 161.3125 C-29.99389545 152.735542 -35.53497962 144.02991099 -41.0625 135.3125 C-44.09886109 130.53612377 -47.22075253 125.82403837 -50.375 121.125 C-51.12410483 120.00287571 -51.87276821 118.88045664 -52.62109375 117.7578125 C-53.02755127 117.14832764 -53.43400879 116.53884277 -53.8527832 115.91088867 C-54.70323067 114.63350384 -55.55201873 113.35501272 -56.39916992 112.07543945 C-58.63906447 108.69808857 -60.90934546 105.34912228 -63.2421875 102.03515625 C-63.70399414 101.3695166 -64.16580078 100.70387695 -64.64160156 100.01806641 C-65.52554218 98.74553507 -66.42023641 97.48038444 -67.32714844 96.22412109 C-69.97824784 92.37564763 -70.87193681 89.78910694 -70.375 85.125 C-69.75625 84.898125 -69.1375 84.67125 -68.5 84.4375 C-65.72651709 82.72446644 -65.51816363 81.12580453 -64.375 78.125 C-62.375 75.8125 -62.375 75.8125 -60.375 74.125 C-59.715 74.125 -59.055 74.125 -58.375 74.125 C-58.1275 73.22910156 -57.88 72.33320313 -57.625 71.41015625 C-56.30135582 67.9314539 -54.950379 66.20686237 -52.375 63.5625 C-47.76593591 58.64815057 -43.69232288 53.4721518 -39.63671875 48.10546875 C-37.59038657 45.40883412 -35.50157435 42.7585153 -33.375 40.125 C-24.62503219 29.27351153 -16.12648611 18.26617253 -7.95385742 6.97387695 C-3.00275618 0.1580398 -3.00275618 0.1580398 0 0 Z " fill="#040404" transform="translate(571.375,407.875)"/>
<path d="M0 0 C166.32 0 332.64 0 504 0 C503.67 1.32 503.34 2.64 503 4 C503 3.34 503 2.68 503 2 C337.67 2 172.34 2 2 2 C3.98 4.97 5.96 7.94 8 11 C8 11.66 8 12.32 8 13 C7.34 13 6.68 13 6 13 C4.4921875 10.91796875 4.4921875 10.91796875 2.875 8.1875 C2.33617187 7.29417969 1.79734375 6.40085938 1.2421875 5.48046875 C0 3 0 3 0 0 Z " fill="#A1A3A3" transform="translate(177,215)"/>
<path d="M0 0 C-0.63907036 2.91953818 -1.57452374 5.40992477 -2.890625 8.08984375 C-3.26823975 8.86859863 -3.64585449 9.64735352 -4.03491211 10.44970703 C-4.63638062 11.68116455 -4.63638062 11.68116455 -5.25 12.9375 C-8.5521685 19.76943744 -11.51026263 26.56325636 -14.02734375 33.7265625 C-15 36 -15 36 -17 37 C-16.23092341 32.51371991 -14.70997313 28.67052502 -12.9375 24.5 C-12.00249669 22.00665785 -11.44920549 19.62036533 -11 17 C-10.34 17 -9.68 17 -9 17 C-8.731875 15.989375 -8.46375 14.97875 -8.1875 13.9375 C-7.1064844 10.12672558 -5.62137662 6.61124792 -4 3 C-4.556875 3.75023437 -5.11375 4.50046875 -5.6875 5.2734375 C-20.03614458 24.51807229 -20.03614458 24.51807229 -23 26 C-21.99215729 22.67411904 -20.60746216 20.41475812 -18.3125 17.875 C-14.8759653 14.05101286 -12.2772916 9.83802479 -9.61328125 5.453125 C-6.7291291 1.06753771 -5.38484811 -0.43660931 0 0 Z " fill="#A0A1A1" transform="translate(977,6)"/>
<path d="M0 0 C1.15957207 3.47871621 0.77456651 4.34219645 -0.4375 7.6875 C-0.86869141 8.89986328 -0.86869141 8.89986328 -1.30859375 10.13671875 C-1.65083984 11.05904297 -1.65083984 11.05904297 -2 12 C-2.66 12 -3.32 12 -4 12 C-4.09796875 12.61746094 -4.1959375 13.23492188 -4.296875 13.87109375 C-5.24514686 19.24190936 -6.63624361 23.83327311 -8.98046875 28.75 C-10.63136444 32.393356 -11.80977177 36.18585955 -13 40 C-12.01 38.35 -11.02 36.7 -10 35 C-9.67 35.66 -9.34 36.32 -9 37 C-10.73397418 40.65047197 -12.19333016 42.55609075 -16 44 C-17.5625 42.75 -17.5625 42.75 -19 41 C-18.90579338 38.1738013 -17.99111663 36.98927869 -16.1875 34.8125 C-14.33971316 32.43677406 -13.32212279 30.71147398 -12.15625 28.0078125 C-11.81037842 27.21060791 -11.46450684 26.41340332 -11.1081543 25.59204102 C-10.55961792 24.30898071 -10.55961792 24.30898071 -10 23 C-9.62077393 22.11948975 -9.24154785 21.23897949 -8.85083008 20.33178711 C-7.66699589 17.57721428 -6.48886447 14.8202704 -5.3125 12.0625 C-4.51748348 10.19898128 -3.72193742 8.33568836 -2.92578125 6.47265625 C-2.57942627 5.66062744 -2.23307129 4.84859863 -1.8762207 4.01196289 C-1.28674523 2.65841946 -0.6602365 1.32047299 0 0 Z " fill="#A9A9A9" transform="translate(609,849)"/>
<path d="M0 0 C0 4.02149737 -1.97232633 5.92973473 -4.375 8.9375 C-4.82037109 9.50726563 -5.26574219 10.07703125 -5.72460938 10.6640625 C-8.03793375 13.60357425 -10.40105762 16.49476134 -12.8203125 19.34765625 C-13.26971191 19.87818604 -13.71911133 20.40871582 -14.18212891 20.95532227 C-15.43614691 22.42515774 -16.70214394 23.88474809 -17.96875 25.34375 C-19.91921164 27.89435368 -20.86472879 30.03193925 -22 33 C-25.62123482 38.01186365 -29.6766222 41.88387641 -35 45 C-33.68634784 42.17661664 -32.22203388 39.86065127 -30.2421875 37.4609375 C-29.70327881 36.80343506 -29.16437012 36.14593262 -28.60913086 35.46850586 C-28.03686768 34.77764893 -27.46460449 34.08679199 -26.875 33.375 C-25.68593617 31.925996 -24.49713309 30.47677799 -23.30859375 29.02734375 C-22.44790283 27.98102783 -22.44790283 27.98102783 -21.56982422 26.91357422 C-18.33896603 22.97524351 -15.17570444 18.98278955 -12 15 C-9.83410734 12.29104731 -7.66701365 9.58305599 -5.5 6.875 C-4.44789758 5.55991111 -3.39581266 4.2448082 -2.34375 2.9296875 C-1.5703125 1.96289062 -0.796875 0.99609375 0 0 Z " fill="#8A8B8B" transform="translate(948,38)"/>
<path d="M0 0 C0 5.47993668 -4.47441876 10.00434127 -8 14 C-8.66 14 -9.32 14 -10 14 C-9.67 14.99 -9.34 15.98 -9 17 C-10.32 17.33 -11.64 17.66 -13 18 C-13.09152344 18.59296875 -13.18304687 19.1859375 -13.27734375 19.796875 C-14.17232113 22.52534657 -15.33906301 23.47125041 -17.5625 25.25 C-18.20316406 25.77078125 -18.84382812 26.2915625 -19.50390625 26.828125 C-19.99761719 27.21484375 -20.49132812 27.6015625 -21 28 C-21 24.2812584 -20.17115761 23.7680642 -17.6875 21.125 C-15.03134408 18.2133421 -13.01477128 15.38847897 -11 12 C-9.35570171 10.31126121 -7.68615782 8.64694485 -6 7 C-3.96237877 4.69806469 -1.97534534 2.35548052 0 0 Z " fill="#6B6B6B" transform="translate(729,308)"/>
<path d="M0 0 C0.33 0.99 0.66 1.98 1 3 C-0.00390625 4.6484375 -0.00390625 4.6484375 -1.5625 6.375 C-2.11679687 6.99117188 -2.67109375 7.60734375 -3.2421875 8.2421875 C-4.81969509 9.81969509 -6.4138564 11.15416993 -8.1875 12.5 C-11.4556966 15.40506365 -12.30786472 18.02716065 -14 22 C-16.4375 23.6875 -16.4375 23.6875 -19 25 C-20.36984198 26.29579647 -21.7151049 27.61992749 -23 29 C-21.63312778 25.01328937 -19.84804907 22.11505367 -17 19 C-16.34 19 -15.68 19 -15 19 C-14.62294922 17.90171875 -14.62294922 17.90171875 -14.23828125 16.78125 C-12.90673841 13.79052916 -11.39812799 11.90083499 -9.1875 9.5 C-8.47980469 8.72785156 -7.77210938 7.95570313 -7.04296875 7.16015625 C-4.73849227 4.72349183 -2.40875101 2.33347754 0 0 Z " fill="#6B6C6C" transform="translate(352,423)"/>
<path d="M0 0 C0 0.99 0 1.98 0 3 C-0.66 3.66 -1.32 4.32 -2 5 C-2.433125 6.093125 -2.86625 7.18625 -3.3125 8.3125 C-4.85263442 12.05061521 -6.98710653 14.27404877 -10 17 C-11.2065625 18.2375 -11.2065625 18.2375 -12.4375 19.5 C-15.18084285 22.17643205 -18.02880289 24.58158375 -21 27 C-19.6704816 24.13790805 -18.17103597 21.79336696 -16.171875 19.35546875 C-15.61886719 18.67806641 -15.06585937 18.00066406 -14.49609375 17.30273438 C-13.91988281 16.60470703 -13.34367188 15.90667969 -12.75 15.1875 C-12.18925781 14.50107422 -11.62851562 13.81464844 -11.05078125 13.10742188 C-7.42759341 8.68512447 -3.73448583 4.32860857 0 0 Z " fill="#777777" transform="translate(878,125)"/>
<path d="M0 0 C2.25 0 2.25 0 5 1 C6.1971302 2.81187274 7.01464264 4.67587253 7.88671875 6.6640625 C9.50812319 10.06616725 11.66354792 13.04177353 13.828125 16.1171875 C15 18 15 18 15 20 C15.66 20 16.32 20 17 20 C17.66 21.65 18.32 23.3 19 25 C14.64025157 22.47593512 12.16256229 20.91938794 10.625 16.0625 C9.35119026 12.46091613 8.12153363 11.21528193 5 9 C3.75 5.8125 3.75 5.8125 3 3 C0.04491137 2.65629795 0.04491137 2.65629795 -1.38671875 4.3125 C-1.81597656 4.869375 -2.24523437 5.42625 -2.6875 6 C-3.450625 6.99 -4.21375 7.98 -5 9 C-5 4.61031544 -2.87194899 3.23094261 0 0 Z " fill="#707070" transform="translate(569,408)"/>
<path d="M0 0 C0.66 0 1.32 0 2 0 C2.33 0.99 2.66 1.98 3 3 C2.21625 3.7425 1.4325 4.485 0.625 5.25 C-1.98385921 7.67883557 -1.98385921 7.67883557 -2.875 9.9375 C-4.34065768 12.62453908 -6.17859801 13.93267281 -8.625 15.75 C-9.44226563 16.36359375 -10.25953125 16.9771875 -11.1015625 17.609375 C-11.72804688 18.06828125 -12.35453125 18.5271875 -13 19 C-13 13.99979847 -9.88616369 10.90831778 -6.5 7.4375 C-5.675 6.633125 -4.85 5.82875 -4 5 C-3.278125 4.071875 -2.55625 3.14375 -1.8125 2.1875 C-1.214375 1.465625 -0.61625 0.74375 0 0 Z " fill="#454647" transform="translate(327,452)"/>
<path d="M0 0 C0.66 1.32 1.32 2.64 2 4 C1.38511719 4.42410156 0.77023438 4.84820313 0.13671875 5.28515625 C-5.36805064 9.0907058 -5.36805064 9.0907058 -8.6875 14.6875 C-10.32405424 18.81785118 -12.19262966 19.85835419 -16 22 C-16.99 22.66 -17.98 23.32 -19 24 C-17.40636055 20.56811598 -15.35818662 17.98321814 -12.85546875 15.140625 C-9.80132167 11.61710374 -6.89009674 7.97673493 -3.953125 4.35546875 C-2 2 -2 2 0 0 Z " fill="#5D5E5C" transform="translate(214,589)"/>
<path d="M0 0 C0.33 0.66 0.66 1.32 1 2 C0.50628906 2.51949219 0.01257813 3.03898437 -0.49609375 3.57421875 C-1.45708984 4.62029297 -1.45708984 4.62029297 -2.4375 5.6875 C-3.07558594 6.37199219 -3.71367187 7.05648438 -4.37109375 7.76171875 C-6.17341885 10.23829496 -6.53372973 12.01185932 -7 15 C-8.375 16.5625 -8.375 16.5625 -10 18 C-10.45375 18.721875 -10.9075 19.44375 -11.375 20.1875 C-12.179375 21.0846875 -12.179375 21.0846875 -13 22 C-15.6015625 22.11328125 -15.6015625 22.11328125 -18 22 C-13.81463808 16.06223045 -9.11935977 10.73276678 -4.171875 5.41796875 C-1.89891979 3.00365867 -1.89891979 3.00365867 0 0 Z " fill="#636363" transform="translate(371,399)"/>
<path d="M0 0 C0 0.99 0 1.98 0 3 C-0.495 3.474375 -0.99 3.94875 -1.5 4.4375 C-3.46168789 6.11993064 -3.46168789 6.11993064 -3 10 C-4.65234375 11.53515625 -4.65234375 11.53515625 -6.9375 13.0625 C-12.65826667 17.22140656 -16.72775252 22.41476866 -21 28 C-21 23.95063758 -19.46673482 22.81218173 -16.875 19.75 C-16.05128906 18.7703125 -15.22757813 17.790625 -14.37890625 16.78125 C-13.59386719 15.8634375 -12.80882812 14.945625 -12 14 C-11.43152344 13.3296875 -10.86304688 12.659375 -10.27734375 11.96875 C-8.8596529 10.30532607 -7.43110734 8.65188424 -6 7 C-4.87436083 5.68804813 -3.74935235 4.37555485 -2.625 3.0625 C-1.75 2.04166667 -0.875 1.02083333 0 0 Z " fill="#888888" transform="translate(264,529)"/>
<path d="M0 0 C0 3.37729153 -0.37411207 3.83838882 -2.40625 6.35546875 C-2.90253906 6.97744141 -3.39882813 7.59941406 -3.91015625 8.24023438 C-4.43480469 8.88283203 -4.95945312 9.52542969 -5.5 10.1875 C-6.28697266 11.16879883 -6.28697266 11.16879883 -7.08984375 12.16992188 C-8.38675581 13.7851669 -9.69254664 15.39327566 -11 17 C-10.34 17.33 -9.68 17.66 -9 18 C-9.66 18 -10.32 18 -11 18 C-11 18.66 -11 19.32 -11 20 C-12.96875 21.5078125 -12.96875 21.5078125 -15.5 23.125 C-16.3353125 23.66382812 -17.170625 24.20265625 -18.03125 24.7578125 C-18.6809375 25.16773437 -19.330625 25.57765625 -20 26 C-18.66414379 23.12014348 -17.15046262 20.77039445 -15.13671875 18.3203125 C-14.57919922 17.63839844 -14.02167969 16.95648438 -13.44726562 16.25390625 C-12.86654297 15.55136719 -12.28582031 14.84882812 -11.6875 14.125 C-11.11837891 13.43019531 -10.54925781 12.73539063 -9.96289062 12.01953125 C-6.66272189 7.99567454 -3.33648539 3.99376676 0 0 Z " fill="#6A6A6A" transform="translate(912,83)"/>
<path d="M0 0 C0 0.99 0 1.98 0 3 C-0.66 3.66 -1.32 4.32 -2 5 C-2.309375 5.804375 -2.61875 6.60875 -2.9375 7.4375 C-3.9878314 9.97065221 -4.95221448 11.23145796 -7 13 C-4.03 13.495 -4.03 13.495 -1 14 C-3.76223278 16.76223278 -6.20706617 16.57856291 -10 17 C-10.76953125 15.3515625 -10.76953125 15.3515625 -11 13 C-9.19921875 10.2734375 -9.19921875 10.2734375 -6.6875 7.375 C-5.86636719 6.41335938 -5.04523437 5.45171875 -4.19921875 4.4609375 C-2.83844212 2.9382212 -1.44401834 1.44401834 0 0 Z " fill="#797979" transform="translate(634,423)"/>
<path d="M0 0 C1 3 1 3 -0.125 5.875 C-2.07635963 9.12726605 -4.29513312 11.36631383 -7 14 C-7.33 14.99 -7.66 15.98 -8 17 C-8.66 17 -9.32 17 -10 17 C-10 17.66 -10 18.32 -10 19 C-11.65 19.33 -13.3 19.66 -15 20 C-11.69975668 14.79446157 -8.43222262 10.31558518 -4 6 C-2.56685764 4.04868565 -1.28884904 2.05261143 0 0 Z " fill="#414243" transform="translate(684,362)"/>
<path d="M0 0 C0.33 0.66 0.66 1.32 1 2 C-1.40850989 8.02127473 -5.33979015 11.66042142 -10.25 15.6875 C-13.01742194 17.7042322 -13.01742194 17.7042322 -14 20 C-14.66 19.67 -15.32 19.34 -16 19 C-15.57589844 18.52691406 -15.15179688 18.05382812 -14.71484375 17.56640625 C-10.78440876 13.13494877 -7.06856559 8.5957818 -3.48046875 3.8828125 C-2 2 -2 2 0 0 Z " fill="#5C5C5C" transform="translate(104,722)"/>
<path d="M0 0 C0.33 0.99 0.66 1.98 1 3 C2.32 2.67 3.64 2.34 5 2 C3.71399035 7.02712864 1.82997078 9.5436849 -2 13 C-2.8971875 13.8971875 -2.8971875 13.8971875 -3.8125 14.8125 C-4.204375 15.204375 -4.59625 15.59625 -5 16 C-3.50723624 10.60308488 -1.80304155 5.30094216 0 0 Z " fill="#454645" transform="translate(600,874)"/>
<path d="M0 0 C0.33 0.66 0.66 1.32 1 2 C0.3984375 3.7421875 0.3984375 3.7421875 -0.625 5.875 C-2.42669953 9.73668466 -4.11916439 13.62519688 -5.75 17.5625 C-6.17796875 18.59503906 -6.6059375 19.62757812 -7.046875 20.69140625 C-7.36140625 21.45324219 -7.6759375 22.21507813 -8 23 C-9.03159626 19.90521121 -8.97482862 18.47368607 -8.5625 15.3125 C-8.46066406 14.50425781 -8.35882812 13.69601563 -8.25390625 12.86328125 C-8.17011719 12.24839844 -8.08632813 11.63351563 -8 11 C-7.34 11 -6.68 11 -6 11 C-4.02 7.37 -2.04 3.74 0 0 Z " fill="#494B4C" transform="translate(933,104)"/>
<path d="M0 0 C0.66 0 1.32 0 2 0 C2.66 1.65 3.32 3.3 4 5 C4.99 3.35 5.98 1.7 7 0 C7.33 0.66 7.66 1.32 8 2 C6.26602582 5.65047197 4.80666984 7.55609075 1 9 C-0.5625 7.75 -0.5625 7.75 -2 6 C-1.7181953 3.67511119 -1.04553582 2.09107165 0 0 Z " fill="#E4E4E3" transform="translate(592,884)"/>
<path d="M0 0 C0.99 0 1.98 0 3 0 C-0.09429216 6.65564729 -4.74694763 11.27794502 -11 15 C-9.37331769 11.3069915 -7.08687593 8.38370805 -4.5625 5.25 C-3.78003906 4.26515625 -2.99757813 3.2803125 -2.19140625 2.265625 C-1.46824219 1.51796875 -0.74507812 0.7703125 0 0 Z " fill="#535353" transform="translate(924,68)"/>
<path d="M0 0 C0.33 0.99 0.66 1.98 1 3 C-4 8 -9 13 -14 18 C-12.49853841 12.95394871 -9.43322694 9.89020251 -5.875 6.1875 C-5.03001953 5.2912793 -5.03001953 5.2912793 -4.16796875 4.37695312 C-2.7850002 2.91194406 -1.39335215 1.45513688 0 0 Z " fill="#7E7F7F" transform="translate(184,626)"/>
<path d="M0 0 C6.13633067 5.41440941 10.1289925 12.38026445 13 20 C6.86366933 14.58559059 2.8710075 7.61973555 0 0 Z " fill="#8A8A8A" transform="translate(219,280)"/>
<path d="M0 0 C0.66 0 1.32 0 2 0 C0.305613 7.36989466 -1.98783165 13.57735897 -6 20 C-6.66 19.01 -7.32 18.02 -8 17 C-7.01 16.67 -6.02 16.34 -5 16 C-4.04268966 14.14187698 -4.04268966 14.14187698 -3.4375 11.875 C-3.07011719 10.66650391 -3.07011719 10.66650391 -2.6953125 9.43359375 C-2.46585938 8.63050781 -2.23640625 7.82742187 -2 7 C-1.79117188 6.28972656 -1.58234375 5.57945313 -1.3671875 4.84765625 C-0.8989892 3.23533956 -0.44757685 1.61816245 0 0 Z " fill="#5C5C5C" transform="translate(958,43)"/>
<path d="M0 0 C0.66 0.66 1.32 1.32 2 2 C0.68 2.33 -0.64 2.66 -2 3 C-2.09152344 3.59296875 -2.18304687 4.1859375 -2.27734375 4.796875 C-3.17232113 7.52534657 -4.33906301 8.47125041 -6.5625 10.25 C-7.20316406 10.77078125 -7.84382812 11.2915625 -8.50390625 11.828125 C-8.99761719 12.21484375 -9.49132812 12.6015625 -10 13 C-10 9.28115772 -9.1259934 8.63852271 -6.6875 5.9375 C-5.76517578 4.89916016 -5.76517578 4.89916016 -4.82421875 3.83984375 C-3 2 -3 2 0 0 Z " fill="#484848" transform="translate(718,323)"/>
<path d="M0 0 C0.66 0.33 1.32 0.66 2 1 C2 1.66 2 2.32 2 3 C0.4609375 4.26171875 0.4609375 4.26171875 -1.625 5.6875 C-5.75381549 8.66289195 -8.8783437 12.00333398 -12 16 C-12 12.32180832 -11.23156682 11.77617345 -8.8125 9.125 C-8.17828125 8.42632812 -7.5440625 7.72765625 -6.890625 7.0078125 C-4.64038137 4.61809096 -2.35642724 2.28502036 0 0 Z " fill="#555555" transform="translate(870,136)"/>
<path d="M0 0 C0 3.10551666 -0.5393715 4.35261084 -2 7 C-2.66 7 -3.32 7 -4 7 C-4.33 7.99 -4.66 8.98 -5 10 C-6.91191732 12.09694158 -8.45482852 13.72741426 -11 15 C-10.42704553 11.46936161 -9.22229897 9.91099482 -6.625 7.5 C-4.14734271 5.13426973 -1.93547059 2.84628028 0 0 Z " fill="#161616" transform="translate(85,746)"/>
<path d="M0 0 C0.66 0.33 1.32 0.66 2 1 C-1.3 6.28 -4.6 11.56 -8 17 C-9 15 -9 15 -8.25 11.4375 C-7.8375 10.303125 -7.425 9.16875 -7 8 C-6.01 7.67 -5.02 7.34 -4 7 C-2.77554716 5.37051936 -2.77554716 5.37051936 -1.8125 3.4375 C-1.214375 2.303125 -0.61625 1.16875 0 0 Z " fill="#777777" transform="translate(837,503)"/>
<path d="M0 0 C0 2.74969175 -0.02714622 4.46380407 -1 7 C-3.06640625 8.921875 -3.06640625 8.921875 -5.5625 10.75 C-6.80193359 11.67039062 -6.80193359 11.67039062 -8.06640625 12.609375 C-8.70449219 13.06828125 -9.34257813 13.5271875 -10 14 C-10.66 13.67 -11.32 13.34 -12 13 C-11.46890625 12.48050781 -10.9378125 11.96101563 -10.390625 11.42578125 C-6.68949647 7.77192991 -3.12841559 4.17122079 0 0 Z " fill="#5B5B5B" transform="translate(647,408)"/>
<path d="M0 0 C0.8125 1.6875 0.8125 1.6875 1 4 C-1.3125 6.75 -1.3125 6.75 -4 9 C-4.66 9 -5.32 9 -6 9 C-6.66 10.32 -7.32 11.64 -8 13 C-8 9.40142046 -7.04169485 7.90548882 -5 5 C-4.34 5 -3.68 5 -3 5 C-3 4.34 -3 3.68 -3 3 C-2.34 3 -1.68 3 -1 3 C-0.67 2.01 -0.34 1.02 0 0 Z " fill="#616161" transform="translate(762,267)"/>
<path d="M0 0 C0.66 0 1.32 0 2 0 C0.4467033 3.47064731 -1.6229487 6.22929462 -4 9.1875 C-4.70125 10.06792969 -5.4025 10.94835938 -6.125 11.85546875 C-8 14 -8 14 -10 15 C-8.69045041 10.67848635 -6.40768013 7.93048654 -3.4375 4.6484375 C-1.80725313 2.85040066 -1.80725313 2.85040066 0 0 Z " fill="#979897" transform="translate(964,17)"/>
<path d="M0 0 C0.66 0.33 1.32 0.66 2 1 C2 1.66 2 2.32 2 3 C0.34211215 4.34423339 -1.32576317 5.67618483 -3 7 C-3.7734375 8.0828125 -3.7734375 8.0828125 -4.5625 9.1875 C-6.26664484 11.33620437 -7.33318782 11.63216384 -10 12 C-8.62845314 8.81580579 -7.13830017 7.02887404 -4.4375 4.875 C-1.78974334 2.79096366 -1.78974334 2.79096366 0 0 Z " fill="#444444" transform="translate(959,26)"/>
<path d="M0 0 C0.86406958 2.43260352 1.11148146 3.66124417 0.29296875 6.1484375 C-0.07183594 6.88320313 -0.43664062 7.61796875 -0.8125 8.375 C-2.47872546 11.86311904 -3.8606302 15.29704814 -5 19 C-6.4450885 15.18018009 -5.50914617 12.70629313 -4.1875 8.9375 C-3.83042969 7.89464844 -3.47335937 6.85179687 -3.10546875 5.77734375 C-2 3 -2 3 0 0 Z " fill="#7F7F7F" transform="translate(744,478)"/>
<path d="M0 0 C0 3 0 3 -1 5 C-0.34 5.33 0.32 5.66 1 6 C-3.455 9.465 -3.455 9.465 -8 13 C-8 9.00717059 -6.52191924 7.84668408 -4 4.8125 C-3.2575 3.91144531 -2.515 3.01039063 -1.75 2.08203125 C-1.1725 1.39496094 -0.595 0.70789063 0 0 Z " fill="#707170" transform="translate(534,453)"/>
<path d="M0 0 C0.33 0.99 0.66 1.98 1 3 C-0.14453125 4.82421875 -0.14453125 4.82421875 -1.8125 6.6875 C-2.35519531 7.31011719 -2.89789063 7.93273437 -3.45703125 8.57421875 C-5 10 -5 10 -7 10 C-6.42562214 6.12294944 -4.57271945 3.88456423 -2 1 C-1.34 0.67 -0.68 0.34 0 0 Z " fill="#585758" transform="translate(352,423)"/>
<path d="M0 0 C0.33 0 0.66 0 1 0 C2.21019108 6.29299363 2.21019108 6.29299363 1.3125 9.3125 C-0.24088825 11.30971347 -1.73310321 11.94273042 -4 13 C-3.52343588 11.20763933 -3.04366502 9.41613103 -2.5625 7.625 C-2.29566406 6.62726562 -2.02882813 5.62953125 -1.75390625 4.6015625 C-1 2 -1 2 0 0 Z " fill="#5B5B5B" transform="translate(686,638)"/>
<path d="M0 0 C1.05602687 3.66036382 0.91217967 6.2683559 0 10 C-0.99 10.495 -0.99 10.495 -2 11 C-2.72159424 12.64363134 -3.39351421 14.31050386 -4 16 C-5.35304209 11.94087374 -4.15216503 10.22850409 -2.5625 6.3125 C-2.08941406 5.13300781 -1.61632812 3.95351563 -1.12890625 2.73828125 C-0.75636719 1.83464844 -0.38382813 0.93101562 0 0 Z " fill="#707070" transform="translate(720,545)"/>
<path d="M0 0 C0.6875 1.8125 0.6875 1.8125 1 4 C-0.3125 5.75 -0.3125 5.75 -2 7 C-2.66 7 -3.32 7 -4 7 C-4.33 8.65 -4.66 10.3 -5 12 C-5.99 11.34 -6.98 10.68 -8 10 C-6.85500893 8.52018126 -5.708983 7.04116318 -4.5625 5.5625 C-3.60537109 4.32693359 -3.60537109 4.32693359 -2.62890625 3.06640625 C-1 1 -1 1 0 0 Z " fill="#545454" transform="translate(543,442)"/>
<path d="M0 0 C0 3.31246505 -0.55697235 4.36108136 -2.25 7.125 C-2.87648438 8.18074219 -2.87648438 8.18074219 -3.515625 9.2578125 C-5.26426684 11.31016581 -6.37417256 11.629691 -9 12 C-7.55575365 8.76138697 -5.74227753 6.38030837 -3.375 3.75 C-2.74335937 3.04359375 -2.11171875 2.3371875 -1.4609375 1.609375 C-0.97882812 1.07828125 -0.49671875 0.5471875 0 0 Z " fill="#767676" transform="translate(524,466)"/>
<path d="M0 0 C0.33 0.66 0.66 1.32 1 2 C-1.53363068 6.22271781 -3.56620325 8.78310162 -8 11 C-6.52670958 5.99081256 -3.72484762 3.48192278 0 0 Z " fill="#585858" transform="translate(699,345)"/>
<path d="M0 0 C0.99 0.33 1.98 0.66 3 1 C1.375 6.75 1.375 6.75 -2 9 C-2.6875 7.3125 -2.6875 7.3125 -3 5 C-1.5625 2.25 -1.5625 2.25 0 0 Z " fill="#48484A" transform="translate(794,568)"/>
<path d="M0 0 C0 0.99 0 1.98 0 3 C-0.495 3.474375 -0.99 3.94875 -1.5 4.4375 C-3.46168789 6.11993064 -3.46168789 6.11993064 -3 10 C-4.98 10.99 -4.98 10.99 -7 12 C-6.67566492 6.64847115 -3.50295176 3.71719957 0 0 Z M-9 12 C-8.01 12.495 -8.01 12.495 -7 13 C-7.99 13.495 -7.99 13.495 -9 14 C-9 13.34 -9 12.68 -9 12 Z " fill="#575A5A" transform="translate(264,529)"/>
<path d="M0 0 C0.33 1.32 0.66 2.64 1 4 C-1.64 6.31 -4.28 8.62 -7 11 C-7 8 -7 8 -6 6 C-5.34 6 -4.68 6 -4 6 C-4 5.34 -4 4.68 -4 4 C-2.70766393 2.62689293 -1.37562854 1.28965176 0 0 Z " fill="#585858" transform="translate(738,297)"/>
<path d="M0 0 C0.66 1.32 1.32 2.64 2 4 C-2.455 6.97 -2.455 6.97 -7 10 C-4.98127747 5.96255494 -2.91899872 3.37989325 0 0 Z " fill="#696969" transform="translate(304,480)"/>
<path d="M0 0 C1.65 0.33 3.3 0.66 5 1 C5.33 2.32 5.66 3.64 6 5 C4.35 4.01 2.7 3.02 1 2 C-0.98 4.31 -2.96 6.62 -5 9 C-5 4.61031544 -2.87194899 3.23094261 0 0 Z " fill="#A4A4A4" transform="translate(569,408)"/>
<path d="M0 0 C0 2 0 4 0 6 C-1.75 7.38671875 -1.75 7.38671875 -4 8.6875 C-5.11375 9.34298828 -5.11375 9.34298828 -6.25 10.01171875 C-6.8275 10.33785156 -7.405 10.66398437 -8 11 C-6.63629701 8.00779732 -5.05091917 5.70973471 -2.875 3.25 C-2.33617187 2.63640625 -1.79734375 2.0228125 -1.2421875 1.390625 C-0.62730469 0.70226562 -0.62730469 0.70226562 0 0 Z " fill="#5E5E5E" transform="translate(656,397)"/>
<path d="M0 0 C0 3.58912412 -0.66436554 4.10857029 -3 6.6875 C-3.556875 7.31011719 -4.11375 7.93273437 -4.6875 8.57421875 C-5.120625 9.04472656 -5.55375 9.51523437 -6 10 C-6.66 8.68 -7.32 7.36 -8 6 C-7.01 6 -6.02 6 -5 6 C-4.67 4.35 -4.34 2.7 -4 1 C-2.68 0.67 -1.36 0.34 0 0 Z " fill="#484848" transform="translate(534,387)"/>
<path d="M0 0 C0.66 0.33 1.32 0.66 2 1 C1.01 2.485 1.01 2.485 0 4 C0.29609803 7.84927445 1.51907739 10.08761258 4 13 C3.67 13.66 3.34 14.32 3 15 C0.20347237 11.62419165 -1.85279813 9.11452842 -2.4375 4.6875 C-2 2 -2 2 0 0 Z " fill="#8D8D8D" transform="translate(503,491)"/>
<path d="M0 0 C0.82638376 2.89234315 1 4.88742431 1 8 C0.34 8 -0.32 8 -1 8 C-1.66 9.65 -2.32 11.3 -3 13 C-3.93045933 10.44855176 -4.08564091 9.25993522 -3.22265625 6.640625 C-2.83980469 5.85171875 -2.45695313 5.0628125 -2.0625 4.25 C-1.68222656 3.45078125 -1.30195312 2.6515625 -0.91015625 1.828125 C-0.60980469 1.22484375 -0.30945313 0.6215625 0 0 Z " fill="#585858" transform="translate(673,675)"/>
<path d="M0 0 C0.66 0 1.32 0 2 0 C2.33 0.99 2.66 1.98 3 3 C-1.455 5.97 -1.455 5.97 -6 9 C-4.24686304 5.49372608 -2.58369151 2.90665295 0 0 Z " fill="#686A6A" transform="translate(327,452)"/>
<path d="M0 0 C-2.33214148 1.20628008 -4.49642139 2.1654738 -7 3 C-7.66 3.66 -8.32 4.32 -9 5 C-9.66 4.67 -10.32 4.34 -11 4 C-12.32860925 3.64830932 -13.66158328 3.31229724 -15 3 C-13.44033782 2.491217 -11.87710759 1.99336531 -10.3125 1.5 C-9.44238281 1.2215625 -8.57226562 0.943125 -7.67578125 0.65625 C-5.00608323 0.00149195 -2.73603316 -0.11831495 0 0 Z " fill="#464646" transform="translate(320,660)"/>
<path d="M0 0 C0.66 0 1.32 0 2 0 C2 0.66 2 1.32 2 2 C2.99 1.67 3.98 1.34 5 1 C7.125 7.75 7.125 7.75 6 10 C4.99723227 8.52270825 3.99785546 7.04311423 3 5.5625 C2.443125 4.73878906 1.88625 3.91507813 1.3125 3.06640625 C0 1 0 1 0 0 Z " fill="#5F5F5F" transform="translate(562,591)"/>
<path d="M0 0 C0.66 0.33 1.32 0.66 2 1 C0.54744301 4.82946843 -1.42895561 6.12050295 -5 8 C-3.8141763 4.62496331 -2.72426311 2.35277269 0 0 Z " fill="#5B5B5B" transform="translate(239,559)"/>
<path d="M0 0 C0.8125 1.6875 0.8125 1.6875 1 4 C-1.3125 6.75 -1.3125 6.75 -4 9 C-4.66 9 -5.32 9 -6 9 C-4.47291037 5.56404834 -2.40072955 2.88087546 0 0 Z " fill="#292929" transform="translate(439,317)"/>
<path d="M0 0 C0.33 1.32 0.66 2.64 1 4 C-1.97 6.475 -1.97 6.475 -5 9 C-5.33 8.34 -5.66 7.68 -6 7 C-4.02 4.69 -2.04 2.38 0 0 Z " fill="#545454" transform="translate(706,336)"/>
<path d="M0 0 C0.66 0.33 1.32 0.66 2 1 C-0.31 3.31 -2.62 5.62 -5 8 C-5.66 6.68 -6.32 5.36 -7 4 C-6.34 4 -5.68 4 -5 4 C-4.67 3.34 -4.34 2.68 -4 2 C-2.0625 0.8125 -2.0625 0.8125 0 0 Z " fill="#545555" transform="translate(596,315)"/>
<path d="M0 0 C1.65 0 3.3 0 5 0 C3.62845496 2.95409701 2.01136276 5.44008376 0 8 C0 5.36 0 2.72 0 0 Z " fill="#333336" transform="translate(638,815)"/>
<path d="M0 0 C1.32 0 2.64 0 4 0 C4.66 3.3 5.32 6.6 6 10 C2.62358918 6.62358918 1.72549695 4.35482564 0 0 Z " fill="#303041" transform="translate(615,671)"/>
<path d="M0 0 C0 3.16880694 -0.2058242 4.43689172 -2 7 C-4.625 7.75 -4.625 7.75 -7 8 C-3.375 2.25 -3.375 2.25 0 0 Z " fill="#6F6F6F" transform="translate(312,471)"/>
<path d="M0 0 C1 3 1 3 -0.125 6.125 C-2 9 -2 9 -4.6875 9.875 C-5.450625 9.91625 -6.21375 9.9575 -7 10 C-7 8 -7 8 -4.625 5.5625 C-3.75875 4.716875 -2.8925 3.87125 -2 3 C-1.34 2.01 -0.68 1.02 0 0 Z " fill="#646667" transform="translate(684,362)"/>
<path d="M0 0 C0.33 0.66 0.66 1.32 1 2 C-0.73397418 5.65047197 -2.19333016 7.55609075 -6 9 C-5.67 7.68 -5.34 6.36 -5 5 C-4.34 5 -3.68 5 -3 5 C-1.3553326 2.53673288 -1.3553326 2.53673288 0 0 Z " fill="#B6B6B6" transform="translate(599,884)"/>
<path d="M0 0 C0.66 0 1.32 0 2 0 C1.875 1.75 1.875 1.75 1 4 C-2.0625 6.25 -2.0625 6.25 -5 8 C-3.63055898 5.05043472 -2.12169591 2.47531189 0 0 Z " fill="#6B6B6B" transform="translate(279,510)"/>
<path d="M0 0 C2 0 2 0 4.0625 1.625 C6.36129314 4.44287547 6.67506385 6.4257023 7 10 C3.66442368 7.0094833 1.84916079 4.06815373 0 0 Z " fill="#808080" transform="translate(234,304)"/>
<path d="M0 0 C0 3 0 3 -2 6 C-1.34 6.33 -0.68 6.66 0 7 C-0.66 7 -1.32 7 -2 7 C-2.33 7.66 -2.66 8.32 -3 9 C-3.66 8.67 -4.32 8.34 -5 8 C-3.8141763 4.62496331 -2.72426311 2.35277269 0 0 Z " fill="#5A5A5A" transform="translate(560,420)"/>
<path d="M0 0 C0.95904856 3.83619425 0.91892116 5.32431536 0 9 C-0.99 9.33 -1.98 9.66 -3 10 C-2.01 6.7 -1.02 3.4 0 0 Z " fill="#6C6C6C" transform="translate(655,724)"/>
<path d="M0 0 C1.32 0.33 2.64 0.66 4 1 C4.59732819 3.76264289 5 6.16032769 5 9 C4.16094435 7.87926138 3.32892169 6.75325453 2.5 5.625 C2.0359375 4.99851562 1.571875 4.37203125 1.09375 3.7265625 C0 2 0 2 0 0 Z " fill="#6B6B6B" transform="translate(530,541)"/>
<path d="M0 0 C0.66 0.33 1.32 0.66 2 1 C0.55746343 4.36591866 -1.33264727 6.51047079 -4 9 C-2.94124926 5.59687262 -1.99097846 2.98646769 0 0 Z " fill="#303131" transform="translate(758,444)"/>
<path d="M0 0 C1.32 0.33 2.64 0.66 4 1 C2.25 5.875 2.25 5.875 0 7 C0 4.69 0 2.38 0 0 Z " fill="#3C3C3C" transform="translate(665,772)"/>
<path d="M0 0 C3.48331435 3.01887244 4.79157144 5.56909529 6 10 C2.46413986 6.82679218 0.41421969 4.83256305 0 0 Z " fill="#8D8D8D" transform="translate(553,656)"/>
<path d="M0 0 C0.33 0.66 0.66 1.32 1 2 C-0.98 4.97 -0.98 4.97 -3 8 C-4.33332095 5.3333581 -3.67102033 3.83319697 -3 1 C-2.01 0.67 -1.02 0.34 0 0 Z " fill="#525252" transform="translate(885,427)"/>
<path d="M0 0 C2.475 0.99 2.475 0.99 5 2 C3.515 4.475 3.515 4.475 2 7 C0.5393715 4.35261084 0 3.10551666 0 0 Z " fill="#444547" transform="translate(556,355)"/>
<path d="M0 0 C1.32 0.66 2.64 1.32 4 2 C2.35 3.98 0.7 5.96 -1 8 C-1 5.16032769 -0.59732819 2.76264289 0 0 Z " fill="#4E4E4E" transform="translate(613,291)"/>
<path d="M0 0 C0.99 0.33 1.98 0.66 3 1 C1.68 2.65 0.36 4.3 -1 6 C-1.99 5.67 -2.98 5.34 -4 5 C-2.68 3.35 -1.36 1.7 0 0 Z " fill="#BABAB9" transform="translate(968,11)"/>
</svg>
